<?xml version="1.0" encoding="UTF-8"?>
<!DOCTYPE svg PUBLIC "-//W3C//DTD SVG 1.1//EN" "http://www.w3.org/Graphics/SVG/1.1/DTD/svg11.dtd">
<!-- Creator: CorelDRAW X8 -->
<svg xmlns="http://www.w3.org/2000/svg" xml:space="preserve" width="40mm" height="40mm" version="1.1" style="shape-rendering:geometricPrecision; text-rendering:geometricPrecision; image-rendering:optimizeQuality; fill-rule:evenodd; clip-rule:evenodd"
viewBox="0 0 4000 4000"
 xmlns:xlink="http://www.w3.org/1999/xlink">
 <defs>
  <style type="text/css">
   <![CDATA[
    .fil0 {fill:#4BC4FF;fill-rule:nonzero}
    .fil1 {fill:#F41300;fill-rule:nonzero}
   ]]>
  </style>
 </defs>
 <g id="Слой_x0020_1">
  <metadata id="CorelCorpID_0Corel-Layer"/>
  <g id="_2510627314864">
   <path class="fil0" d="M2000 0c552,0 1052,224 1414,586 362,362 586,862 586,1414 0,552 -224,1052 -586,1414 -362,362 -862,586 -1414,586 -552,0 -1052,-224 -1414,-586 -362,-362 -586,-862 -586,-1414 0,-552 224,-1052 586,-1414 362,-362 862,-586 1414,-586zm1360 640c-348,-348 -829,-563 -1360,-563 -531,0 -1012,215 -1360,563 -348,348 -563,829 -563,1360 0,531 215,1012 563,1360 348,348 829,563 1360,563 531,0 1012,-215 1360,-563 348,-348 563,-829 563,-1360 0,-531 -215,-1012 -563,-1360z"/>
   <path class="fil1" d="M969 1226l2062 0c50,0 96,21 129,54 34,33 54,79 54,129l0 1182c0,50 -20,96 -54,129 -33,33 -79,54 -129,54l-2062 0c-50,0 -96,-21 -129,-54 -34,-33 -54,-79 -54,-129l0 -1182c0,-50 20,-96 54,-129 33,-33 79,-54 129,-54zm2062 77l-2062 0c-29,0 -56,12 -75,31 -19,19 -31,46 -31,75l0 1182c0,29 12,56 31,75 19,19 46,31 75,31l2062 0c29,0 56,-12 75,-31 19,-19 31,-46 31,-75l0 -1182c0,-29 -12,-56 -31,-75 -19,-19 -46,-31 -75,-31z"/>
   <path class="fil1" d="M1904 1646l230 0 0 220 220 0 0 268 -220 0 0 220 -268 0 0 -220 -220 0 0 -268 220 0 0 -220 38 0zm153 76l-114 0 0 221 -221 0 0 114 221 0 0 221 114 0 0 -221 221 0 0 -114 -221 0 0 -221z"/>
   <path class="fil1" d="M1728 808l544 0c41,0 78,17 105,43 27,27 44,64 44,105l0 347 -245 0 0 -267 -352 0 0 267 -245 0 0 -347c0,-41 17,-78 44,-104l0 -1c27,-26 64,-43 105,-43zm544 77l-544 0c-20,0 -38,8 -51,21l0 0c-13,13 -21,30 -21,50l0 270 91 0 0 -198c0,-19 8,-36 20,-49l1 0c12,-12 29,-20 48,-20l368 0c19,0 36,8 48,20l1 0c12,13 20,30 20,49l0 198 91 0 0 -270c0,-20 -8,-37 -21,-50 -13,-13 -31,-21 -51,-21z"/>
  </g>
 </g>
</svg>
