<?xml version="1.0" encoding="UTF-8"?>
<!DOCTYPE svg PUBLIC "-//W3C//DTD SVG 1.1//EN" "http://www.w3.org/Graphics/SVG/1.1/DTD/svg11.dtd">
<!-- Creator: CorelDRAW X8 -->
<svg xmlns="http://www.w3.org/2000/svg" xml:space="preserve" width="40mm" height="40mm" version="1.1" style="shape-rendering:geometricPrecision; text-rendering:geometricPrecision; image-rendering:optimizeQuality; fill-rule:evenodd; clip-rule:evenodd"
viewBox="0 0 4000 4000"
 xmlns:xlink="http://www.w3.org/1999/xlink">
 <defs>
  <style type="text/css">
   <![CDATA[
    .fil1 {fill:white}
    .fil0 {fill:#4BC4FF;fill-rule:nonzero}
   ]]>
  </style>
 </defs>
 <g id="Слой_x0020_1">
  <metadata id="CorelCorpID_0Corel-Layer"/>
  <g id="_2510627305808">
   <path class="fil0" d="M2000 0c552,0 1052,224 1414,586 362,362 586,862 586,1414 0,552 -224,1052 -586,1414 -362,362 -862,586 -1414,586 -552,0 -1052,-224 -1414,-586 -362,-362 -586,-862 -586,-1414 0,-552 224,-1052 586,-1414 362,-362 862,-586 1414,-586zm1323 677c-338,-339 -806,-548 -1323,-548 -517,0 -985,209 -1323,548 -339,338 -548,806 -548,1323 0,517 209,985 548,1323 338,339 806,548 1323,548 517,0 985,-209 1323,-548 339,-338 548,-806 548,-1323 0,-517 -209,-985 -548,-1323z"/>
   <path class="fil0" d="M2000 291c472,0 899,192 1208,501 309,309 501,736 501,1208 0,472 -192,899 -501,1208 -309,309 -736,501 -1208,501 -472,0 -899,-192 -1208,-501 -309,-309 -501,-736 -501,-1208 0,-472 192,-899 501,-1208 309,-309 736,-501 1208,-501zm1117 592c-286,-286 -681,-463 -1117,-463 -436,0 -831,177 -1117,463 -286,286 -463,681 -463,1117 0,436 177,831 463,1117 286,286 681,463 1117,463 436,0 831,-177 1117,-463 286,-286 463,-681 463,-1117 0,-436 -177,-831 -463,-1117z"/>
   <polygon class="fil0" points="2717,886 2614,1065 2503,1001 2606,822 "/>
   <polygon class="fil0" points="3178,1394 2999,1497 2935,1386 3114,1283 "/>
   <polygon class="fil0" points="3323,2064 3117,2064 3117,1936 3323,1936 "/>
   <polygon class="fil0" points="3114,2717 2935,2614 2999,2503 3178,2606 "/>
   <polygon class="fil0" points="2606,3178 2503,2999 2614,2935 2717,3114 "/>
   <polygon class="fil0" points="1936,3323 1936,3117 2064,3117 2064,3323 "/>
   <polygon class="fil0" points="1283,3114 1386,2935 1497,2999 1394,3178 "/>
   <polygon class="fil0" points="822,2606 1001,2503 1065,2614 886,2717 "/>
   <polygon class="fil0" points="677,1936 883,1936 883,2064 677,2064 "/>
   <polygon class="fil0" points="886,1283 1065,1386 1001,1497 822,1394 "/>
   <polygon class="fil0" points="1394,822 1497,1001 1386,1065 1283,886 "/>
   <polygon class="fil0" points="1936,2000 1936,708 2064,708 2064,2000 "/>
   <polygon class="fil0" points="2000,2064 1224,2064 1224,1936 2000,1936 "/>
   <circle class="fil1" cx="2000" cy="2000" r="151"/>
   <path class="fil0" d="M2000 1785c59,0 113,24 152,63 39,39 63,93 63,152 0,59 -24,113 -63,152 -39,39 -93,63 -152,63 -59,0 -113,-24 -152,-63 -39,-39 -63,-93 -63,-152 0,-59 24,-113 63,-152 39,-39 93,-63 152,-63zm61 154c-16,-16 -37,-25 -61,-25 -24,0 -45,9 -61,25 -16,16 -25,37 -25,61 0,24 9,45 25,61 16,16 37,25 61,25 24,0 45,-9 61,-25 16,-16 25,-37 25,-61 0,-24 -9,-45 -25,-61z"/>
  </g>
 </g>
</svg>
