<?xml version="1.0" encoding="UTF-8"?>
<!DOCTYPE svg PUBLIC "-//W3C//DTD SVG 1.1//EN" "http://www.w3.org/Graphics/SVG/1.1/DTD/svg11.dtd">
<!-- Creator: CorelDRAW X8 -->
<svg xmlns="http://www.w3.org/2000/svg" xml:space="preserve" width="40mm" height="40mm" version="1.1" style="shape-rendering:geometricPrecision; text-rendering:geometricPrecision; image-rendering:optimizeQuality; fill-rule:evenodd; clip-rule:evenodd"
viewBox="0 0 4000 4000"
 xmlns:xlink="http://www.w3.org/1999/xlink">
 <defs>
  <style type="text/css">
   <![CDATA[
    .fil2 {fill:white}
    .fil0 {fill:#4BC4FF;fill-rule:nonzero}
    .fil1 {fill:#F41300;fill-rule:nonzero}
   ]]>
  </style>
 </defs>
 <g id="Слой_x0020_1">
  <metadata id="CorelCorpID_0Corel-Layer"/>
  <g id="_2510627296048">
   <path class="fil0" d="M2000 0c552,0 1052,224 1414,586 362,362 586,862 586,1414 0,552 -224,1052 -586,1414 -362,362 -862,586 -1414,586 -552,0 -1052,-224 -1414,-586 -362,-362 -586,-862 -586,-1414 0,-552 224,-1052 586,-1414 362,-362 862,-586 1414,-586zm1360 640c-348,-348 -829,-563 -1360,-563 -531,0 -1012,215 -1360,563 -348,348 -563,829 -563,1360 0,531 215,1012 563,1360 348,348 829,563 1360,563 531,0 1012,-215 1360,-563 348,-348 563,-829 563,-1360 0,-531 -215,-1012 -563,-1360z"/>
   <path class="fil1" d="M2956 3235l-158 -914c-39,-225 -227,-255 -416,-285 -26,-4 -51,-8 -75,-12l-307 1014 -307 -1015c-17,3 -35,5 -53,8 -206,30 -452,65 -481,298l-115 905 -75 -10 114 -904c37,-291 313,-331 546,-365 30,-4 58,-9 85,-13l33 -6 253 837 253 -838 34 7c37,7 72,13 107,18 216,35 431,69 479,348l158 914 -75 13z"/>
   <polygon class="fil1" points="2038,2906 2038,3229 1962,3229 1962,2906 "/>
   <path class="fil1" d="M1588 1203c0,6 0,21 -1,38 0,19 -1,42 -1,73 0,88 7,197 54,197l37 0 1 37c3,75 35,149 78,205 45,59 101,98 146,98l125 0 0 76 -125 0c-69,0 -147,-50 -206,-127 -47,-60 -82,-138 -92,-218 -81,-29 -95,-160 -95,-268 0,-24 1,-52 2,-75 0,-12 1,-23 1,-36l76 0z"/>
   <path class="fil1" d="M2484 1203c0,13 1,26 1,41 2,27 3,58 3,88 0,105 -15,224 -96,250 -10,81 -46,158 -92,218 -59,77 -137,127 -206,127l-125 0 0 -76 125 0c45,0 100,-39 145,-98 44,-56 76,-130 79,-205l1 -37 37 0c47,0 55,-96 55,-179 0,-33 -1,-61 -2,-84 -1,-20 -2,-36 -2,-45l77 0z"/>
   <path class="fil2" d="M1549 1254l176 0 0 -85c259,8 425,-106 545,-56l1 141 178 3c39,-166 77,-495 -190,-455 -222,-258 -869,-66 -710,452z"/>
   <path class="fil1" d="M1578 1216l109 0 0 -86 39 1c121,3 222,-21 307,-41 99,-24 178,-43 252,-13l23 10 1 129 110 2c14,-73 26,-167 14,-245 -5,-35 -15,-66 -31,-89 -15,-21 -36,-37 -64,-43 -20,-5 -45,-5 -74,-1l-21 3 -14 -16c-61,-71 -160,-104 -264,-100 -69,2 -139,20 -201,52 -62,32 -115,78 -152,137 -47,77 -65,178 -34,300zm147 77l-204 0 -8 -27c-49,-158 -27,-289 34,-390 44,-71 108,-127 181,-165 73,-38 154,-58 234,-61 119,-3 234,33 311,112 31,-3 58,-1 82,4 49,12 84,38 110,74 23,34 37,76 44,122 15,101 -3,222 -22,304l-7 30 -246 -5 -2 -150c-48,-9 -108,6 -182,23 -80,20 -174,42 -287,44l0 85 -38 0z"/>
   <polygon class="fil1" points="1687,1364 1687,1157 1763,1157 1763,1364 "/>
   <polygon class="fil1" points="2233,1364 2233,1157 2310,1157 2310,1364 "/>
   <polygon class="fil1" points="2478,2000 2564,2302 2031,3030 1969,2984 2480,2287 2404,2021 "/>
   <polygon class="fil1" points="1596,2021 1520,2286 1750,2577 1689,2624 1435,2302 1522,2000 "/>
   <polygon class="fil1" points="1793,2806 1407,2806 1407,2729 1793,2729 "/>
  </g>
 </g>
</svg>
