<?xml version="1.0" encoding="UTF-8"?>
<!DOCTYPE svg PUBLIC "-//W3C//DTD SVG 1.1//EN" "http://www.w3.org/Graphics/SVG/1.1/DTD/svg11.dtd">
<!-- Creator: CorelDRAW X8 -->
<svg xmlns="http://www.w3.org/2000/svg" xml:space="preserve" width="40mm" height="40mm" version="1.1" style="shape-rendering:geometricPrecision; text-rendering:geometricPrecision; image-rendering:optimizeQuality; fill-rule:evenodd; clip-rule:evenodd"
viewBox="0 0 4000 4000"
 xmlns:xlink="http://www.w3.org/1999/xlink">
 <defs>
  <style type="text/css">
   <![CDATA[
    .fil0 {fill:#4BC4FF;fill-rule:nonzero}
    .fil1 {fill:#F41300;fill-rule:nonzero}
   ]]>
  </style>
 </defs>
 <g id="Слой_x0020_1">
  <metadata id="CorelCorpID_0Corel-Layer"/>
  <g id="_2510627298672">
   <path class="fil0" d="M2000 0c552,0 1052,224 1414,586 362,362 586,862 586,1414 0,552 -224,1052 -586,1414 -362,362 -862,586 -1414,586 -552,0 -1052,-224 -1414,-586 -362,-362 -586,-862 -586,-1414 0,-552 224,-1052 586,-1414 362,-362 862,-586 1414,-586zm1360 640c-348,-348 -829,-563 -1360,-563 -531,0 -1012,215 -1360,563 -348,348 -563,829 -563,1360 0,531 215,1012 563,1360 348,348 829,563 1360,563 531,0 1012,-215 1360,-563 348,-348 563,-829 563,-1360 0,-531 -215,-1012 -563,-1360z"/>
   <path class="fil1" d="M2497 2033l-835 482 0 -1030 893 515 -58 33zm-427 158l332 -191 -663 -383 0 766 331 -192z"/>
   <path class="fil1" d="M858 1113l2323 0 0 1774 -2361 0 0 -1774 38 0zm2246 77l-2208 0 0 1620 2208 0 0 -1620z"/>
   <polygon class="fil1" points="3596,2887 3291,2887 3291,1113 3596,1113 3596,1190 3367,1190 3367,2810 3596,2810 "/>
   <polygon class="fil1" points="401,2810 630,2810 630,1190 401,1190 401,1113 706,1113 706,2887 401,2887 "/>
  </g>
 </g>
</svg>
