<svg xmlns="http://www.w3.org/2000/svg" width="40mm" height="40mm" viewBox="0 0 4000 4000" shape-rendering="geometricPrecision" text-rendering="geometricPrecision" image-rendering="optimizeQuality" fill-rule="evenodd" clip-rule="evenodd"><defs><style>.fil1{fill:#f41300;fill-rule:nonzero}</style></defs><g id="Слой_x0020_1"><g id="_2510627314864"><path d="M2000 0c552 0 1052 224 1414 586s586 862 586 1414-224 1052-586 1414-862 586-1414 586-1052-224-1414-586S0 2552 0 2000 224 948 586 586 1448 0 2000 0zm1360 640C3012 292 2531 77 2000 77S988 292 640 640 77 1469 77 2000s215 1012 563 1360 829 563 1360 563 1012-215 1360-563 563-829 563-1360-215-1012-563-1360z" fill="#4bc4ff" fill-rule="nonzero"/><path class="fil1" d="M969 1226h2062c50 0 96 21 129 54 34 33 54 79 54 129v1182c0 50-20 96-54 129-33 33-79 54-129 54H969c-50 0-96-21-129-54-34-33-54-79-54-129V1409c0-50 20-96 54-129 33-33 79-54 129-54zm2062 77H969c-29 0-56 12-75 31s-31 46-31 75v1182c0 29 12 56 31 75s46 31 75 31h2062c29 0 56-12 75-31s31-46 31-75V1409c0-29-12-56-31-75s-46-31-75-31z"/><path class="fil1" d="M1904 1646h230v220h220v268h-220v220h-268v-220h-220v-268h220v-220h38zm153 76h-114v221h-221v114h221v221h114v-221h221v-114h-221v-221zm-329-914h544c41 0 78 17 105 43 27 27 44 64 44 105v347h-245v-267h-352v267h-245V956c0-41 17-78 44-104v-1c27-26 64-43 105-43zm544 77h-544c-20 0-38 8-51 21s-21 30-21 50v270h91v-198c0-19 8-36 20-49h1c12-12 29-20 48-20h368c19 0 36 8 48 20h1c12 13 20 30 20 49v198h91V956c0-20-8-37-21-50s-31-21-51-21z"/></g></g></svg>