<svg xmlns="http://www.w3.org/2000/svg" width="40mm" height="40mm" viewBox="0 0 4000 4000" shape-rendering="geometricPrecision" text-rendering="geometricPrecision" image-rendering="optimizeQuality" fill-rule="evenodd" clip-rule="evenodd"><defs><style>.fil0{fill:#4bc4ff;fill-rule:nonzero}</style></defs><g id="Слой_x0020_1"><g id="_2510627305808"><path class="fil0" d="M2000 0c552 0 1052 224 1414 586s586 862 586 1414-224 1052-586 1414-862 586-1414 586-1052-224-1414-586S0 2552 0 2000 224 948 586 586 1448 0 2000 0zm1323 677c-338-339-806-548-1323-548S1015 338 677 677c-339 338-548 806-548 1323s209 985 548 1323c338 339 806 548 1323 548s985-209 1323-548c339-338 548-806 548-1323s-209-985-548-1323z"/><path class="fil0" d="M2000 291c472 0 899 192 1208 501s501 736 501 1208-192 899-501 1208-736 501-1208 501-899-192-1208-501-501-736-501-1208 192-899 501-1208 736-501 1208-501zm1117 592c-286-286-681-463-1117-463S1169 597 883 883s-463 681-463 1117 177 831 463 1117 681 463 1117 463 831-177 1117-463 463-681 463-1117-177-831-463-1117z"/><path class="fil0" d="M2717 886l-103 179-111-64 103-179zm461 508l-179 103-64-111 179-103zm145 670h-206v-128h206zm-209 653l-179-103 64-111 179 103zm-508 461l-103-179 111-64 103 179zm-670 145v-206h128v206zm-653-209l103-179 111 64-103 179zm-461-508l179-103 64 111-179 103zm-145-670h206v128H677zm209-653l179 103-64 111-179-103zm508-461l103 179-111 64-103-179zm542 1178V708h128v1292z"/><path class="fil0" d="M2000 2064h-776v-128h776z"/><circle cx="2000" cy="2000" r="151" fill="#fff"/><path class="fil0" d="M2000 1785c59 0 113 24 152 63s63 93 63 152-24 113-63 152-93 63-152 63-113-24-152-63-63-93-63-152 24-113 63-152 93-63 152-63zm61 154c-16-16-37-25-61-25s-45 9-61 25-25 37-25 61 9 45 25 61 37 25 61 25 45-9 61-25 25-37 25-61-9-45-25-61z"/></g></g></svg>