<svg xmlns="http://www.w3.org/2000/svg" width="40mm" height="40mm" viewBox="0 0 4000 4000" shape-rendering="geometricPrecision" text-rendering="geometricPrecision" image-rendering="optimizeQuality" fill-rule="evenodd" clip-rule="evenodd"><defs><style>.fil1{fill:#f41300;fill-rule:nonzero}</style></defs><g id="Слой_x0020_1"><g id="_2510627314384"><path d="M2000 0c552 0 1052 224 1414 586s586 862 586 1414-224 1052-586 1414-862 586-1414 586-1052-224-1414-586S0 2552 0 2000 224 948 586 586 1448 0 2000 0zm1360 640C3012 292 2531 77 2000 77S988 292 640 640 77 1469 77 2000s215 1012 563 1360 829 563 1360 563 1012-215 1360-563 563-829 563-1360-215-1012-563-1360z" fill="#4bc4ff" fill-rule="nonzero"/><path class="fil1" d="M1050 775h1938v2450H1012V775h38zm1861 76H1089v2298h1822V851z"/><path fill="#fff" d="M1583 657h834v317h-834z"/><path class="fil1" d="M1583 619h873v393h-912V619h39zm796 76h-758v240h758V695zm-1042 629h841v76h-841zm0 271h492v77h-492zm0 272h841v77h-841zm0 272h841v77h-841zm0 272h626v77h-626zm1079-1087h259v76h-259zm0 271h259v77h-259zm0 272h259v77h-259zm0 272h259v77h-259zm0 272h259v77h-259z"/></g></g></svg>