<svg xmlns="http://www.w3.org/2000/svg" width="40mm" height="40mm" viewBox="0 0 4000 4000" shape-rendering="geometricPrecision" text-rendering="geometricPrecision" image-rendering="optimizeQuality" fill-rule="evenodd" clip-rule="evenodd"><defs><style>.fil1{fill:#f41300;fill-rule:nonzero}</style></defs><g id="Слой_x0020_1"><g id="_2510627296048"><path d="M2000 0c552 0 1052 224 1414 586s586 862 586 1414-224 1052-586 1414-862 586-1414 586-1052-224-1414-586S0 2552 0 2000 224 948 586 586 1448 0 2000 0zm1360 640C3012 292 2531 77 2000 77S988 292 640 640 77 1469 77 2000s215 1012 563 1360 829 563 1360 563 1012-215 1360-563 563-829 563-1360-215-1012-563-1360z" fill="#4bc4ff" fill-rule="nonzero"/><path class="fil1" d="M2956 3235l-158-914c-39-225-227-255-416-285-26-4-51-8-75-12l-307 1014-307-1015c-17 3-35 5-53 8-206 30-452 65-481 298l-115 905-75-10 114-904c37-291 313-331 546-365 30-4 58-9 85-13l33-6 253 837 253-838 34 7c37 7 72 13 107 18 216 35 431 69 479 348l158 914-75 13z"/><path class="fil1" d="M2038 2906v323h-76v-323zm-450-1703c0 6 0 21-1 38 0 19-1 42-1 73 0 88 7 197 54 197h37l1 37c3 75 35 149 78 205 45 59 101 98 146 98h125v76h-125c-69 0-147-50-206-127-47-60-82-138-92-218-81-29-95-160-95-268 0-24 1-52 2-75 0-12 1-23 1-36h76z"/><path class="fil1" d="M2484 1203c0 13 1 26 1 41 2 27 3 58 3 88 0 105-15 224-96 250-10 81-46 158-92 218-59 77-137 127-206 127h-125v-76h125c45 0 100-39 145-98 44-56 76-130 79-205l1-37h37c47 0 55-96 55-179 0-33-1-61-2-84-1-20-2-36-2-45h77z"/><path d="M1549 1254h176v-85c259 8 425-106 545-56l1 141 178 3c39-166 77-495-190-455-222-258-869-66-710 452z" fill="#fff"/><path class="fil1" d="M1578 1216h109v-86l39 1c121 3 222-21 307-41 99-24 178-43 252-13l23 10 1 129 110 2c14-73 26-167 14-245-5-35-15-66-31-89-15-21-36-37-64-43-20-5-45-5-74-1l-21 3-14-16c-61-71-160-104-264-100-69 2-139 20-201 52s-115 78-152 137c-47 77-65 178-34 300zm147 77h-204l-8-27c-49-158-27-289 34-390 44-71 108-127 181-165s154-58 234-61c119-3 234 33 311 112 31-3 58-1 82 4 49 12 84 38 110 74 23 34 37 76 44 122 15 101-3 222-22 304l-7 30-246-5-2-150c-48-9-108 6-182 23-80 20-174 42-287 44v85h-38z"/><path class="fil1" d="M1687 1364v-207h76v207zm546 0v-207h77v207zm245 636l86 302-533 728-62-46 511-697-76-266zm-882 21l-76 265 230 291-61 47-254-322 87-302zm197 785h-386v-77h386z"/></g></g></svg>