<svg xmlns="http://www.w3.org/2000/svg" width="40mm" height="40mm" viewBox="0 0 4000 4000" shape-rendering="geometricPrecision" text-rendering="geometricPrecision" image-rendering="optimizeQuality" fill-rule="evenodd" clip-rule="evenodd"><defs><style>.fil1{fill:#f41300;fill-rule:nonzero}</style></defs><g id="Слой_x0020_1"><g id="_2510627298672"><path d="M2000 0c552 0 1052 224 1414 586s586 862 586 1414-224 1052-586 1414-862 586-1414 586-1052-224-1414-586S0 2552 0 2000 224 948 586 586 1448 0 2000 0zm1360 640C3012 292 2531 77 2000 77S988 292 640 640 77 1469 77 2000s215 1012 563 1360 829 563 1360 563 1012-215 1360-563 563-829 563-1360-215-1012-563-1360z" fill="#4bc4ff" fill-rule="nonzero"/><path class="fil1" d="M2497 2033l-835 482V1485l893 515-58 33zm-427 158l332-191-663-383v766l331-192z"/><path class="fil1" d="M858 1113h2323v1774H820V1113h38zm2246 77H896v1620h2208V1190zm492 1697h-305V1113h305v77h-229v1620h229zm-3195-77h229V1190H401v-77h305v1774H401z"/></g></g></svg>